<svg width="500" height="500" viewBox="0 0 500 500" fill="none" xmlns="http://www.w3.org/2000/svg">
<rect width="500" height="500" fill="#CF4647"/>
<g clip-path="url(#clip0_2_17)">
<path d="M180.221 252.989C180.019 253.298 179.627 254.272 179.092 255.9C178.546 257.539 177.881 259.582 177.097 262.077C176.313 264.536 175.457 267.304 174.555 270.357L171.739 279.718C170.67 282.901 169.838 286.014 168.888 289.078L166.512 297.37L164.73 303.571L163.899 306.541C163.542 307.527 163.186 308.62 162.592 309.832C161.998 311.019 161.285 312.172 160.573 313.253C159.741 314.322 158.909 315.237 157.959 315.949C157.009 316.662 156.058 317.019 154.989 317.019C153.326 317.019 152.138 316.448 151.307 315.355C150.475 314.227 150.119 312.196 150.119 309.226V306.541C150.119 305.555 150.594 303.69 151.307 300.981C152.019 298.249 152.851 295.184 153.92 291.763C154.871 288.318 156.058 284.778 157.128 281.107L160.335 271.129C157.484 274.217 154.514 277.306 151.307 280.276C148.099 283.364 144.773 286.097 141.447 288.473C138.002 290.848 134.557 292.868 131.112 294.412C127.667 295.957 124.341 296.669 121.133 296.669C117.451 296.669 114.362 295.838 111.749 294.175C109.135 292.512 106.878 290.492 105.215 287.879C103.552 285.265 102.245 282.295 101.414 279.088C100.95 276.011 100.475 272.685 100.475 269.478V268.29C100.475 267.933 100.523 267.541 100.594 267.173C100.879 261.233 101.723 255.175 103.089 248.95C104.514 242.678 106.296 236.477 108.553 230.3C110.81 224.122 113.424 218.064 116.393 212.172C119.482 206.517 122.689 200.934 126.134 195.707C129.579 190.48 133.286 185.61 137.182 181.214C141.102 176.795 145.106 172.994 149.228 169.81C153.338 166.603 157.496 164.108 161.701 162.326C165.859 160.544 170.017 159.594 174.127 159.594C178.879 159.594 183.464 160.901 187.907 163.478C192.302 166.128 196.46 170.285 200.356 176.106C201.235 177.413 201.782 178.72 202.019 180.05C202.257 181.357 202.376 182.628 202.376 183.792C202.376 186.572 201.722 188.781 200.392 190.373C199.085 192.036 197.541 192.749 195.64 192.749C193.977 192.749 192.433 191.918 191.007 190.136C189.582 188.354 187.919 185.859 186.256 182.652C184.593 179.682 182.811 177.544 180.791 176.237C178.772 174.93 176.633 174.336 174.258 174.336C170.575 174.336 166.774 175.88 162.616 178.969C158.458 182.058 154.419 185.978 150.38 190.967C146.341 195.957 142.421 201.659 138.738 208.073C135.056 214.488 131.73 221.022 128.879 227.793C126.028 234.564 123.77 241.098 122.107 247.632C120.444 254.165 119.613 259.986 119.613 265.213C119.613 266.995 119.732 268.777 119.969 270.559C120.207 272.459 120.682 274.004 121.276 275.548C121.87 277.092 122.82 278.28 124.008 279.23C125.196 280.181 126.622 280.656 128.285 280.656C130.185 280.656 132.442 280.062 134.818 278.755C137.313 277.449 139.808 275.785 142.421 273.647C145.034 271.509 147.767 269.133 150.38 266.52C152.994 263.906 155.607 261.174 157.864 258.442C160.121 255.709 162.259 253.096 163.923 250.601C165.704 248.107 167.011 245.968 167.962 244.068L174.84 221.96C175.719 219.62 176.859 217.945 178.32 216.971C179.746 215.973 181.207 215.474 182.716 215.474C183.428 215.474 184.177 215.593 184.913 215.831C185.626 216.068 186.315 216.448 186.897 216.971C187.491 217.446 187.931 218.159 188.275 218.99C188.632 219.822 188.869 220.772 188.869 221.96C188.869 224.93 188.632 227.734 188.156 230.323C187.681 232.937 186.968 235.431 186.137 237.926C185.424 240.361 184.474 242.844 183.523 245.351C182.573 247.845 181.623 250.459 180.672 253.191L180.221 252.989ZM278.855 271.141C276.562 274.229 273.889 277.247 270.848 280.169C267.795 283.115 264.647 285.728 261.416 288.009C258.185 290.29 255.001 292.131 251.877 293.521C248.741 294.911 245.937 295.6 243.443 295.6C240.948 295.6 238.893 294.769 237.325 293.105C235.757 291.442 234.973 288.591 234.973 284.552C234.973 281.701 235.4 278.375 236.232 274.574C234.878 276.95 233.179 279.444 231.148 281.82C229.128 284.315 226.788 286.572 224.186 288.591C221.573 290.611 218.651 292.274 215.419 293.462C212.188 294.65 208.672 295.363 204.847 295.363C203.148 295.363 201.485 295.125 199.893 294.65C198.23 294.175 196.804 293.462 195.617 292.393C194.429 291.324 193.478 289.898 192.647 288.116C191.934 286.334 191.578 284.077 191.578 281.464L191.815 278.613C192.053 276.831 192.647 273.861 193.835 269.941C195.023 266.021 196.686 260.913 199.062 254.617C201.437 248.321 204.645 240.837 208.921 231.927C209.99 229.551 211.178 227.888 212.723 226.819C214.148 225.75 215.693 225.275 217.356 225.275C218.068 225.275 218.781 225.393 219.613 225.631C220.325 225.75 221.038 226.106 221.751 226.581C222.464 227.057 222.939 227.651 223.414 228.363C223.77 228.957 224.008 229.789 224.008 230.739C224.008 231.333 223.889 231.927 223.77 232.402C223.414 233.471 222.939 234.778 222.107 236.441L219.019 242.31C217.831 244.448 216.643 246.824 215.336 249.342C214.029 251.872 212.842 254.569 211.772 257.206C210.703 259.938 209.753 262.73 208.921 265.522C208.09 268.373 207.615 271.105 207.496 273.718C207.496 274.906 207.733 275.857 208.209 276.807C208.684 277.757 209.634 278.233 210.822 278.233C214.148 278.233 217.474 277.163 220.563 274.906C223.652 272.685 226.503 269.917 229.116 266.615C231.73 263.288 234.105 259.725 236.244 255.923C238.382 252.122 240.045 248.677 241.471 245.541C242.421 243.438 243.371 241.181 244.084 238.77C244.797 236.394 245.628 234.137 246.579 232.117C247.41 230.098 248.479 228.363 249.667 227.009C250.737 225.655 252.162 224.99 253.944 224.99C255.726 224.99 257.27 225.702 258.339 227.128C259.408 228.553 260.002 230.216 260.002 232.236C260.002 233.305 259.646 234.849 258.933 236.75C258.22 238.651 257.389 240.908 256.32 243.402L252.875 251.445C251.568 254.296 250.499 257.147 249.43 260.117C248.361 263.027 247.41 265.938 246.698 268.717C245.985 271.568 245.628 274.182 245.628 276.558C245.628 278.815 246.816 279.884 249.073 279.884C250.737 279.884 252.756 279.409 255.132 278.221C257.508 277.152 260.002 275.607 262.616 273.588C265.229 271.568 267.843 269.192 270.456 266.46C273.07 263.728 275.445 260.829 277.465 257.67L278.297 270.262L278.855 271.141Z" fill="white" stroke="white" stroke-miterlimit="10"/>
<path d="M281.278 266.508C280.708 267.933 280.15 269.596 279.615 271.473C279.057 273.35 278.784 275.037 278.784 276.522C278.784 277.449 278.938 278.185 279.259 278.743C279.568 279.302 280.162 279.575 281.041 279.575C282.145 279.575 283.512 279.195 285.163 278.423C286.802 277.651 288.572 276.641 290.473 275.358C292.373 274.099 294.369 272.649 296.412 271.01C298.479 269.347 300.535 267.565 302.566 265.902C304.585 264.12 306.534 262.338 308.387 260.556C310.24 258.774 311.903 257.111 313.376 255.686C313.78 255.211 314.267 254.973 314.849 254.735C315.419 254.498 315.918 254.379 316.334 254.379C317.403 254.379 318.235 254.735 318.947 255.686C319.66 256.517 320.017 257.705 320.017 259.131C320.017 260.437 319.66 261.863 318.947 263.407C318.235 264.952 316.928 266.496 315.146 268.04C311.82 271.604 308.494 275.049 305.049 278.375C301.722 281.583 298.277 284.552 294.951 287.047C291.625 289.542 288.299 291.442 284.973 292.987C281.646 294.412 278.439 295.125 275.35 295.125C273.212 295.125 271.43 294.769 270.005 294.056C268.579 293.343 267.51 292.393 266.56 291.205C265.728 290.017 265.134 288.591 264.778 287.047C264.421 285.384 264.303 283.721 264.303 281.939C264.303 278.85 264.659 275.762 265.491 272.554C266.322 269.347 267.154 266.377 268.223 263.764C270.124 258.893 271.905 254.141 273.806 249.39L279.033 236.322L302.661 176.819C303.552 174.443 304.799 172.756 306.403 171.711C308.019 170.761 309.61 170.285 311.238 170.285C312.901 170.285 314.326 170.761 315.681 171.83C316.987 172.851 317.7 174.562 317.7 176.902C317.7 178.007 317.463 179.183 317.047 180.418C316.572 181.606 316.096 182.961 315.384 184.374C314.077 187.249 312.533 190.789 310.751 194.994L304.811 208.774C302.792 213.704 300.653 218.872 298.515 224.217L292.1 239.898C289.962 244.982 288.061 249.758 286.279 254.32L281.646 266.116L281.278 266.508Z" fill="white" stroke="white" stroke-miterlimit="10"/>
<path d="M392.112 249.758C392.861 249.247 393.538 248.843 394.167 248.534C394.785 248.225 395.391 248.059 395.949 248.059C397.101 248.059 397.969 248.582 398.539 249.603C399.133 250.625 399.489 251.861 399.489 253.357C399.489 254.961 399.133 256.6 398.42 258.263C397.707 259.927 396.757 261.328 395.331 262.421C389.748 267.375 384.759 271.889 380.482 275.964C376.087 280.038 372.048 283.543 368.128 286.477C364.208 289.447 360.406 291.704 356.724 293.367C353.041 295.03 349.121 295.861 344.844 295.861C340.924 295.861 337.836 295.03 335.697 293.248C333.559 291.585 332.49 289.209 332.49 286.12V285.408C332.49 285.289 332.609 284.933 332.609 284.695C332.846 282.913 333.678 280.775 335.103 278.28C336.529 275.904 338.192 273.41 340.211 270.796C342.231 268.183 344.369 265.569 346.626 262.956C348.883 260.342 350.903 257.848 352.922 255.472C354.823 253.096 356.367 250.958 357.674 248.938C358.981 247.038 359.575 245.374 359.575 244.187C359.575 243.474 359.337 242.88 358.838 242.405C358.28 242.048 357.413 241.811 356.225 241.811C354.086 241.811 351.948 242.405 349.739 243.474C347.482 244.543 345.272 246.087 343.086 247.869C340.948 249.77 338.81 251.789 336.766 254.165C334.723 256.541 332.846 259.036 330.946 261.53C329.164 264.144 327.501 266.638 325.956 269.252C324.531 271.865 323.224 274.241 322.155 276.379L320.848 279.23L319.066 283.507L316.928 288.259L314.909 292.892L313.245 296.812C312.77 298 312.414 298.713 312.176 299.188C311.939 299.782 311.582 300.851 310.988 302.395L308.85 307.836L306.355 314.369L303.98 320.784L301.96 326.225C301.366 327.769 301.01 328.815 300.891 329.373C300.297 330.917 299.703 332.462 298.99 333.887C298.277 335.313 297.505 336.536 296.591 337.617C295.688 338.686 294.642 339.577 293.466 340.231C292.278 340.825 290.972 341.181 289.546 341.181C287.646 341.181 286.101 340.706 284.913 339.851C283.725 339.019 283.013 337.237 283.013 334.742C283.013 333.555 283.131 332.248 283.488 330.941C283.725 329.634 284.201 328.423 284.676 327.14C285.032 325.833 285.626 324.645 286.101 323.457C286.576 322.269 287.052 321.081 287.408 319.941C290.14 313.764 293.051 307.586 295.961 301.338C298.871 295.089 301.663 288.983 304.395 282.925C307.08 276.866 309.563 270.927 311.879 264.987C314.136 259.166 316.037 253.512 317.581 248.119L319.244 243.414C319.957 241.395 320.789 239.375 321.739 237.475C322.689 235.574 323.759 233.792 324.947 232.367C326.134 230.941 327.441 230.193 328.748 230.193C330.886 230.193 332.395 230.668 333.333 231.618C334.284 232.664 334.759 233.994 334.759 235.895C334.759 236.251 334.711 236.845 334.604 237.677C334.486 238.508 334.367 239.34 334.177 240.231L333.666 242.725C333.547 243.557 333.31 244.151 333.191 244.507C335.091 242.416 337.23 240.349 339.463 238.271C341.72 236.216 344.096 234.35 346.472 232.687C348.848 231.024 351.342 229.599 353.837 228.589C356.332 227.52 358.826 226.985 361.321 226.985C363.103 226.985 364.766 227.223 366.5 227.698C368.163 228.197 369.708 228.922 371.014 229.884C372.404 230.834 373.485 232.022 374.317 233.448C375.148 234.873 375.564 236.572 375.564 238.484C375.564 241.015 374.899 243.711 373.664 246.562C372.357 249.461 370.813 252.383 368.841 255.234C366.94 258.157 364.837 260.984 362.592 263.728C360.335 266.46 358.316 268.955 356.296 271.212L351.307 277.033C350 278.577 349.287 279.646 349.263 280.24C349.263 280.953 349.501 281.547 349.976 282.022C350.451 282.497 351.283 282.735 352.352 282.735C353.279 282.735 354.585 282.2 356.272 281.191C358.03 280.121 360.43 278.458 363.519 276.011C366.607 273.517 370.599 270.309 375.362 266.151C380.114 262.041 386.054 256.885 393.027 250.625L392.112 249.758Z" fill="white" stroke="white" stroke-miterlimit="10"/>
</g>
<defs>
<clipPath id="clip0_2_17">
<rect width="300" height="181.943" fill="white" transform="translate(100 159)"/>
</clipPath>
</defs>
</svg>
